<svg xmlns="http://www.w3.org/2000/svg" viewBox="0 0 63 70" fill="none">
<path d="M62.7973 44.1458C62.7994 41.8937 62.2369 39.677 61.1614 37.6983C60.0859 35.7196 58.5316 34.042 56.6406 32.8188C54.7496 31.5957 52.5821 30.866 50.3364 30.6964C48.0907 30.5269 45.8383 30.9229 43.7851 31.8483C41.7318 32.7737 39.9433 34.1989 38.5829 35.9937C37.2225 37.7886 36.3336 39.8957 35.9976 42.1226C35.6615 44.3495 35.8889 46.6251 36.659 48.7415C37.4292 50.8578 38.7174 52.7474 40.4061 54.2375V69.4914L48.8116 63.8463C48.9625 63.7449 49.1402 63.6908 49.322 63.6908C49.5038 63.6908 49.6815 63.7449 49.8324 63.8463L58.2379 69.4914V54.2376C59.6709 52.9757 60.8188 51.423 61.6049 49.683C62.3911 47.9429 62.7976 46.0553 62.7973 44.1458ZM49.3221 35.7601C50.9806 35.7601 52.6019 36.2519 53.9809 37.1733C55.36 38.0948 56.4348 39.4044 57.0695 40.9367C57.7042 42.469 57.8702 44.1551 57.5467 45.7818C57.2231 47.4085 56.4244 48.9027 55.2517 50.0754C54.0789 51.2482 52.5847 52.0468 50.958 52.3704C49.3314 52.694 47.6453 52.5279 46.113 51.8932C44.5807 51.2585 43.271 50.1837 42.3496 48.8047C41.4282 47.4256 40.9363 45.8044 40.9363 44.1458C40.9389 41.9226 41.8232 39.7911 43.3952 38.219C44.9673 36.6469 47.0988 35.7626 49.3221 35.7601Z" fill="currentcolor"/>
<path d="M37.7657 14.4824H13.9304C13.7212 14.482 13.514 14.5229 13.3206 14.6027C13.1273 14.6825 12.9515 14.7996 12.8035 14.9474C12.6554 15.0951 12.538 15.2707 12.4578 15.4639C12.3777 15.6571 12.3364 15.8642 12.3364 16.0734C12.3364 16.2826 12.3777 16.4897 12.4578 16.6829C12.538 16.8762 12.6554 17.0517 12.8035 17.1995C12.9515 17.3472 13.1273 17.4644 13.3206 17.5441C13.514 17.6239 13.7212 17.6648 13.9304 17.6644H37.7657C37.9749 17.6648 38.1821 17.6239 38.3755 17.5441C38.5688 17.4644 38.7446 17.3472 38.8926 17.1995C39.0407 17.0517 39.1581 16.8762 39.2383 16.6829C39.3184 16.4897 39.3597 16.2826 39.3597 16.0734C39.3597 15.8642 39.3184 15.6571 39.2383 15.4639C39.1581 15.2707 39.0407 15.0951 38.8926 14.9474C38.7446 14.7996 38.5688 14.6825 38.3755 14.6027C38.1821 14.5229 37.9749 14.482 37.7657 14.4824Z" fill="currentcolor"/>
<path d="M37.7657 25.6875H13.9304C13.7212 25.6871 13.514 25.728 13.3206 25.8078C13.1273 25.8875 12.9515 26.0047 12.8035 26.1524C12.6554 26.3002 12.538 26.4757 12.4578 26.669C12.3777 26.8622 12.3364 27.0693 12.3364 27.2785C12.3364 27.4877 12.3777 27.6948 12.4578 27.888C12.538 28.0812 12.6554 28.2568 12.8035 28.4045C12.9515 28.5523 13.1273 28.6694 13.3206 28.7492C13.514 28.829 13.7212 28.8699 13.9304 28.8695H37.7657C37.9749 28.8699 38.1821 28.829 38.3755 28.7492C38.5688 28.6694 38.7446 28.5523 38.8926 28.4045C39.0407 28.2568 39.1581 28.0812 39.2383 27.888C39.3184 27.6948 39.3597 27.4877 39.3597 27.2785C39.3597 27.0693 39.3184 26.8622 39.2383 26.669C39.1581 26.4757 39.0407 26.3002 38.8926 26.1524C38.7446 26.0047 38.5688 25.8875 38.3755 25.8078C38.1821 25.728 37.9749 25.6871 37.7657 25.6875Z" fill="currentcolor"/>
<path d="M25.7011 36.8936H13.9304C13.7212 36.8932 13.514 36.934 13.3206 37.0138C13.1273 37.0936 12.9515 37.2107 12.8035 37.3585C12.6554 37.5063 12.538 37.6818 12.4578 37.875C12.3777 38.0682 12.3364 38.2754 12.3364 38.4845C12.3364 38.6937 12.3777 38.9009 12.4578 39.0941C12.538 39.2873 12.6554 39.4628 12.8035 39.6106C12.9515 39.7584 13.1273 39.8755 13.3206 39.9553C13.514 40.0351 13.7212 40.0759 13.9304 40.0755H25.7011C25.9103 40.0759 26.1175 40.0351 26.3109 39.9553C26.5043 39.8755 26.68 39.7584 26.8281 39.6106C26.9761 39.4628 27.0936 39.2873 27.1737 39.0941C27.2539 38.9009 27.2951 38.6937 27.2951 38.4845C27.2951 38.2754 27.2539 38.0682 27.1737 37.875C27.0936 37.6818 26.9761 37.5063 26.8281 37.3585C26.68 37.2107 26.5043 37.0936 26.3109 37.0138C26.1175 36.934 25.9103 36.8932 25.7011 36.8936Z" fill="currentcolor"/>
<path d="M49.323 1.37287e-06H2.37403C2.06254 -0.000333784 1.75403 0.0607003 1.46613 0.179617C1.17823 0.298535 0.916577 0.473005 0.696117 0.693063C0.475658 0.913121 0.300711 1.17445 0.18127 1.46214C0.0618287 1.74982 0.000232803 2.05822 5.6036e-07 2.36971V58.9662C-0.000213749 59.278 0.0610461 59.5868 0.180276 59.8749C0.299506 60.1631 0.474368 60.4249 0.69486 60.6454C0.915351 60.8658 1.17715 61.0407 1.46527 61.1599C1.7534 61.2792 2.06221 61.3404 2.37403 61.3402H37.5955V56.5965H4.74806V4.74375H46.9489V28.0301C48.5232 27.7995 50.1227 27.7995 51.697 28.0301V2.36971C51.6968 2.05822 51.6352 1.74982 51.5157 1.46214C51.3963 1.17446 51.2213 0.913129 51.0009 0.693072C50.7804 0.473015 50.5188 0.298544 50.2309 0.179625C49.943 0.0607066 49.6345 -0.000330115 49.323 1.37287e-06Z" fill="currentcolor"/>
</svg>