<svg viewBox="0 0 55 71" fill="none" xmlns="http://www.w3.org/2000/svg">
<path d="M54.2342 11.2028C54.2259 9.95585 53.2291 8.93441 51.9837 8.91206L51.9821 8.91155H51.9416H50.0875V7.05748C50.0875 5.79426 49.0584 4.7652 47.7952 4.7652H46.1879V2.78053C46.1879 1.65532 45.2737 0.75 44.1574 0.75L2.78053 0.750538C2.78052 0.750538 2.78052 0.750538 2.78052 0.750538C1.65531 0.750539 0.75 1.66468 0.75 2.78106V60.2044C0.75 61.3296 1.66414 62.2349 2.78053 62.2349H4.60336V64.0348C4.60336 65.298 5.6324 66.327 6.89564 66.327L8.74214 66.3266V68.1806C8.74214 69.4438 9.77118 70.4728 11.0344 70.4728H51.942C53.2052 70.4728 54.2342 69.4438 54.2342 68.1806L54.2343 11.2045L54.2342 11.2028ZM44.5312 2.78011V49.4255H34.5931C33.7766 49.4255 33.1099 50.0922 33.1099 50.9087V60.5851L2.78478 60.5846C2.784 60.5846 2.78323 60.5846 2.78245 60.5845C2.57888 60.579 2.4196 60.4242 2.40614 60.2296V60.2034V2.78011C2.40614 2.57145 2.57161 2.40598 2.78028 2.40598H44.1571C44.3658 2.40598 44.5312 2.57144 44.5312 2.78011ZM6.2595 62.2338H33.6684C34.2437 62.2338 34.8081 61.9991 35.217 61.5902L45.5439 51.2634C45.9528 50.8545 46.1875 50.29 46.1875 49.7147L46.187 6.4286H47.7943C48.1417 6.4286 48.4308 6.71727 48.4308 7.06506V64.0411C48.4308 64.3886 48.1421 64.6776 47.7943 64.6776H6.889C6.55282 64.671 6.27936 64.409 6.2595 64.0728V64.0337V62.2338ZM10.3974 68.1795V66.3254H47.7947C49.0579 66.3254 50.087 65.2964 50.087 64.0331V10.5673H51.941C52.2885 10.5673 52.5775 10.856 52.5775 11.2038V67.9362L52.5696 67.9364V68.18C52.5696 68.5275 52.2809 68.8165 51.9331 68.8165L11.0338 68.8159C10.6864 68.8159 10.3974 68.5273 10.3974 68.1795ZM34.7656 51.0743H43.3911L34.7656 59.6998V51.0743Z" fill="currentcolor" stroke="currentcolor" stroke-width="0.5"/>
<path d="M5.87868 5.95215H5.87867C5.4245 5.95215 5.05078 6.32587 5.05078 6.78004C5.05078 7.23179 5.41457 7.60847 5.87867 7.60847H41.0516C41.5057 7.60847 41.8795 7.23475 41.8795 6.78058C41.8795 6.32641 41.5057 5.95269 41.0516 5.95269L5.87868 5.95215Z" fill="currentcolor" stroke="currentcolor" stroke-width="0.5"/>
<path d="M5.87867 14.3599H41.0516C41.5057 14.3599 41.8795 13.9862 41.8795 13.532C41.8795 13.0778 41.5057 12.7041 41.0516 12.7041H5.87867C5.4245 12.7041 5.05078 13.0778 5.05078 13.532C5.05078 13.984 5.41487 14.3599 5.87867 14.3599Z" fill="currentcolor" stroke="currentcolor" stroke-width="0.5"/>
<path d="M5.87867 21.1031H41.0516C41.5057 21.1031 41.8795 20.7293 41.8795 20.2752C41.8795 19.821 41.5057 19.4473 41.0516 19.4473H5.87867C5.4245 19.4473 5.05078 19.821 5.05078 20.2752C5.05078 20.7272 5.41487 21.1031 5.87867 21.1031Z" fill="currentcolor" stroke="currentcolor" stroke-width="0.5"/>
<path d="M5.87868 26.1982H5.87867C5.4245 26.1982 5.05078 26.572 5.05078 27.0261C5.05078 27.4779 5.41457 27.8546 5.87867 27.8546H41.0516C41.5057 27.8546 41.8795 27.4808 41.8795 27.0267C41.8795 26.5725 41.5057 26.1988 41.0516 26.1988L5.87868 26.1982Z" fill="currentcolor" stroke="currentcolor" stroke-width="0.5"/>
<path d="M5.87868 32.9414H5.87867C5.4245 32.9414 5.05078 33.3151 5.05078 33.7693C5.05078 34.221 5.41457 34.5977 5.87867 34.5977H41.0516C41.5057 34.5977 41.8795 34.224 41.8795 33.7698C41.8795 33.3157 41.5058 32.9419 41.0516 32.9419L5.87868 32.9414Z" fill="currentcolor" stroke="currentcolor" stroke-width="0.5"/>
<path d="M5.87868 39.6855H5.87867C5.4245 39.6855 5.05078 40.0593 5.05078 40.5134C5.05078 40.9652 5.41457 41.3419 5.87867 41.3419H41.0516C41.5057 41.3419 41.8795 40.9682 41.8795 40.514C41.8795 40.0598 41.5058 39.6861 41.0516 39.6861L5.87868 39.6855Z" fill="currentcolor" stroke="currentcolor" stroke-width="0.5"/>
<path d="M5.87868 46.4355H5.87867C5.4245 46.4355 5.05078 46.8093 5.05078 47.2634C5.05078 47.7152 5.41457 48.0919 5.87867 48.0919H41.0516C41.5058 48.0919 41.8795 47.7181 41.8795 47.264C41.8795 46.8098 41.5057 46.4361 41.0516 46.4361L5.87868 46.4355Z" fill="currentcolor" stroke="currentcolor" stroke-width="0.5"/>
<path d="M28.8361 53.4336H5.87013C5.41596 53.4336 5.04224 53.8073 5.04224 54.2615C5.04224 54.7157 5.41596 55.0894 5.87013 55.0894H28.8361C29.2903 55.0894 29.664 54.7157 29.664 54.2615C29.664 53.8094 29.2999 53.4336 28.8361 53.4336Z" fill="currentcolor" stroke="currentcolor" stroke-width="0.5"/>
</svg>
