<svg viewBox="0 0 151 150" fill="none" xmlns="http://www.w3.org/2000/svg">
<path d="M12.3682 98.5634C16.289 101.827 21.7455 103.624 27.7318 103.624C40.7712 103.624 49.8773 95.4275 49.8773 83.6918C49.8773 82.5336 49.0178 81.5563 47.87 81.4064L31.0711 36.3712H65.5682C66.8225 39.7357 69.6903 42.2385 73.1921 43.0272V103.83H68.1715C62.7583 103.83 58.2255 107.866 57.1588 112.767H56.2456C54.9433 112.803 53.9007 113.857 53.8778 115.16V125.595C53.8778 126.869 54.973 127.757 56.2467 127.757H94.7516C96.0254 127.757 97.1205 126.868 97.1205 125.595V115.16C97.0976 113.857 96.0539 112.802 94.7516 112.767H93.8384C92.7718 107.866 88.24 103.83 82.8257 103.83H77.8062V43.0272C81.3081 42.2387 84.176 39.736 85.4302 36.3712H119.927L103.128 81.4064C101.981 81.5563 101.122 82.5336 101.121 83.6918C101.121 89.8052 103.418 94.9482 107.762 98.5634C111.683 101.827 117.139 103.624 123.126 103.624C136.165 103.624 145.271 95.4275 145.271 83.6918C145.271 82.5909 144.493 81.6433 143.414 81.4293L125.428 33.2125C125.419 33.1884 125.408 33.1667 125.4 33.1427C125.384 33.1049 125.369 33.066 125.35 33.0294C125.333 32.9927 125.316 32.9607 125.298 32.9275C125.279 32.8943 125.263 32.8646 125.245 32.8325C125.227 32.8016 125.202 32.7639 125.179 32.7295C125.159 32.7009 125.141 32.6723 125.121 32.646C125.097 32.6139 125.072 32.5819 125.047 32.551C125.022 32.5201 125.001 32.4961 124.977 32.4697C124.953 32.4434 124.926 32.4148 124.899 32.3885C124.873 32.3622 124.845 32.3347 124.816 32.3084C124.787 32.2821 124.764 32.2637 124.738 32.242C124.706 32.2157 124.674 32.1894 124.64 32.1642C124.613 32.1447 124.587 32.1264 124.56 32.1081C124.524 32.0841 124.489 32.0612 124.452 32.0394C124.423 32.0223 124.395 32.0063 124.365 31.9902C124.328 31.9708 124.293 31.9513 124.255 31.933C124.222 31.917 124.188 31.9044 124.153 31.8884C124.127 31.8769 124.102 31.8643 124.076 31.8552C124.065 31.8518 124.056 31.8495 124.047 31.846C124.01 31.8335 123.974 31.822 123.937 31.8117C123.9 31.8003 123.864 31.7888 123.827 31.7797C123.791 31.7705 123.758 31.7648 123.723 31.7579C123.683 31.7499 123.644 31.7408 123.604 31.735C123.572 31.7305 123.539 31.7282 123.507 31.7247C123.464 31.7202 123.422 31.7156 123.38 31.7133C123.348 31.711 123.314 31.7133 123.282 31.7133H123.155C123.122 31.7156 123.088 31.7202 123.054 31.7224C123.012 31.7259 122.972 31.7293 122.931 31.735C122.897 31.7396 122.862 31.7476 122.828 31.7545H122.821L86.0478 31.7568C85.7342 28.208 83.6583 25.0551 80.5239 23.3659C77.3882 21.6767 73.6127 21.6767 70.4783 23.3659C67.3426 25.055 65.2666 28.2078 64.9543 31.7568H28.1809C28.1431 31.7488 28.1054 31.7408 28.0676 31.735C28.0356 31.7305 28.0035 31.7282 27.9703 31.7247C27.928 31.7202 27.8856 31.7156 27.8433 31.7133C27.8113 31.711 27.7781 31.7133 27.746 31.7133H27.619C27.5858 31.7156 27.5515 31.7202 27.5183 31.7224C27.4771 31.7259 27.437 31.7293 27.3958 31.735C27.3615 31.7396 27.3272 31.7476 27.2928 31.7545C27.2528 31.7625 27.2127 31.7694 27.1738 31.7797C27.1406 31.7877 27.1074 31.7991 27.0743 31.8083C27.0342 31.8209 26.9941 31.8323 26.9552 31.846C26.9461 31.8495 26.9369 31.8518 26.9266 31.8552C26.9014 31.8643 26.8774 31.8769 26.8522 31.8872C26.8168 31.9021 26.7813 31.9159 26.7458 31.933C26.7115 31.9502 26.6737 31.9696 26.6382 31.9891C26.6096 32.0051 26.5787 32.0211 26.549 32.0383C26.5124 32.06 26.4769 32.0841 26.4414 32.107C26.4151 32.1253 26.3876 32.1436 26.3613 32.163C26.3281 32.1882 26.2949 32.2134 26.2629 32.2409C26.2365 32.2626 26.2102 32.2844 26.1851 32.3072C26.1599 32.3301 26.1278 32.361 26.1004 32.3885C26.074 32.416 26.0489 32.4411 26.0237 32.4686C25.9985 32.4961 25.9756 32.5235 25.9527 32.551C25.9298 32.5785 25.9024 32.6117 25.8795 32.6437C25.8555 32.6757 25.8394 32.7009 25.82 32.7307C25.7982 32.7639 25.7754 32.7971 25.7548 32.8314C25.7342 32.8657 25.7181 32.8955 25.701 32.9275C25.6838 32.9596 25.6655 32.9939 25.6495 33.0282C25.6334 33.0626 25.6163 33.1049 25.6003 33.1438C25.5911 33.1667 25.5797 33.1896 25.5716 33.2125L7.586 81.4293C6.50682 81.6433 5.72864 82.5908 5.72864 83.6918C5.72864 89.8052 8.02545 94.9471 12.3697 98.5635L12.3682 98.5634ZM123.125 98.9903C118.215 98.9903 113.807 97.5621 110.713 94.986C108.004 92.7327 106.358 89.7035 105.88 85.9555H140.512C139.326 94.8923 131.192 98.9903 123.127 98.9903H123.125ZM123.267 40.5753L138.475 81.3448H108.062L123.267 40.5753ZM92.5081 117.38V123.146H58.4915V117.38H92.5081ZM82.8264 108.443C85.676 108.443 88.1113 110.461 89.0496 112.768L61.95 112.767C62.8884 110.461 65.3227 108.442 68.1733 108.442L82.8264 108.443ZM75.4998 26.7167C77.0849 26.7178 78.6036 27.3484 79.7239 28.4688C80.8454 29.5891 81.476 31.1089 81.4771 32.694C81.4771 32.8485 81.4657 33.0007 81.4542 33.1529C81.3295 33.4413 81.2642 33.7525 81.2654 34.0673C81.2654 34.1188 81.27 34.1691 81.2734 34.2195C80.89 35.666 79.9791 36.9157 78.7202 37.7225C77.4602 38.5293 75.9439 38.8337 74.471 38.5774C72.997 38.3199 71.6729 37.5199 70.7609 36.3343C69.8488 35.1499 69.415 33.6644 69.5444 32.1745C69.6737 30.6845 70.3569 29.2974 71.459 28.2868C72.5622 27.2763 74.0041 26.7155 75.4998 26.7167ZM27.7313 40.5776L42.9393 81.3471H12.5233L27.7313 40.5776ZM45.1172 85.9585C43.9305 94.8952 35.7973 98.9932 27.7325 98.9932C22.8229 98.9932 18.4146 97.565 15.3202 94.9889C12.6114 92.7356 10.9647 89.7064 10.4863 85.9585H45.1172Z" fill="currentColor"/>
</svg>
