<svg xmlns="http://www.w3.org/2000/svg" viewBox="0 0 18 18" fill="none">
<path d="M2.2707 11.9445H2.6857C2.96195 14.4777 4.89758 16.5139 7.37945 16.952C7.54883 17.1964 7.83008 17.357 8.15008 17.357H9.8507C10.3682 17.357 10.7882 16.9377 10.7882 16.4195C10.7882 15.9014 10.3682 15.482 9.8507 15.482H8.15008C7.9157 15.482 7.70383 15.5714 7.53945 15.7133C5.47008 15.3202 3.90008 13.5014 3.90008 11.3195V7.30703C3.90008 4.49453 6.18758 2.20703 9.00008 2.20703C11.8126 2.20703 14.1001 4.49516 14.1001 7.30703V11.3195C14.1001 11.6645 14.3795 11.9445 14.7251 11.9445H15.7288C16.8338 11.9445 17.7326 11.0458 17.7326 9.94078V8.68578C17.7326 7.58078 16.8338 6.68203 15.7288 6.68203H15.3182C15.0032 3.47266 12.2907 0.957031 9.00008 0.957031C5.70945 0.957031 2.99695 3.47266 2.68195 6.68203H2.27133C1.16633 6.68203 0.267578 7.58078 0.267578 8.68578V9.94078C0.267578 11.0458 1.16633 11.9445 2.27133 11.9445H2.2707ZM15.3501 7.93203H15.7288C16.1445 7.93203 16.4826 8.27016 16.4826 8.68578V9.94078C16.4826 10.3564 16.1445 10.6945 15.7288 10.6945H15.3501V7.93203ZM1.51695 8.68578C1.51695 8.27016 1.85508 7.93203 2.2707 7.93203H2.64945V10.6945H2.2707C1.85508 10.6945 1.51695 10.3564 1.51695 9.94078V8.68578Z" fill="currentColor"></path>
</svg>